<?xml version="1.0" encoding="utf-8"?>
<!-- Generator: Adobe Illustrator 19.1.0, SVG Export Plug-In . SVG Version: 6.00 Build 0)  -->
<svg version="1.1" id="Logo" xmlns="http://www.w3.org/2000/svg" xmlns:xlink="http://www.w3.org/1999/xlink" x="0px" y="0px"
	 viewBox="0 0 2000 1000" style="enable-background:new 0 0 2000 1000;" xml:space="preserve">
<style type="text/css">
	.st0{fill:#000000;}
	.st1{fill:#FFFFFF;}
	.st2{fill:#000000;}
</style>
<polygon class="st0" points="1314.7,75.8 811.4,75.8 811.4,954.5 915.5,954.5 915.5,561.6 915.5,468.7 915.5,168.7 1314.7,168.7 
	1314.7,232.3 1407.6,232.3 1407.6,168.7 1588.4,168.7 1588.4,861.6 1588.4,954.5 1691.4,954.5 1692.6,861.6 1692.6,168.7 
	1874.6,168.7 1874.6,232.3 1967.5,232.3 1967.5,75.8 "/>
<path class="st1" d="M1091.4,367.8c-5.3,0-9.7,4.3-9.7,9.7c0,5.3,4.3,9.6,9.7,9.6c5.3,0,9.6-4.3,9.6-9.6
	C1101,372.1,1096.7,367.8,1091.4,367.8z"/>
<path class="st1" d="M1161.4,375.5c-7.5,0-13.5,6-13.5,13.5c0,7.5,6.1,13.5,13.5,13.5c7.5,0,13.5-6.1,13.5-13.5
	C1175,381.5,1168.9,375.5,1161.4,375.5z"/>
<path class="st2" d="M1239.2,451.9c-8.5,0-15.6,5.4-18.4,12.9h-113.5v0.5l-0.2-0.2l-24.6,24.6H698.7v0.2L449.3,739.2L306.1,596
	l-4.8,14.3l141.3,141.3l6.6,6.6l255.1-255.2h383.6V503l0.1,0.1l24.9-24.9h107.8c2.8,7.5,9.9,12.9,18.4,12.9
	c10.8,0,19.6-8.8,19.6-19.7C1258.9,460.6,1250.1,451.9,1239.2,451.9z M1239.2,484.2c-7,0-12.7-5.7-12.7-12.7c0-7,5.7-12.7,12.7-12.7
	c7,0,12.7,5.7,12.7,12.7C1251.9,478.5,1246.2,484.2,1239.2,484.2z"/>
<path class="st2" d="M1125.9,536.7c-3.8,0-7.3,1.1-10.3,3l-27.5-27.5l-0.1,0.1v-0.1H708.4v0.2l-0.2-0.2L449.4,771L298.2,619.8
	l-4.8,14.3l156.1,156.1l9.5-9.6l0,0l254.8-254.8h368.8l24.6,24.6l0.2-0.2c-0.7,2-1.1,4-1.1,6.2c0,10.8,8.8,19.6,19.6,19.6
	c10.8,0,19.6-8.8,19.6-19.6C1145.6,545.5,1136.8,536.7,1125.9,536.7z M1125.9,566c-5.3,0-9.6-4.3-9.6-9.7c0-5.3,4.3-9.6,9.6-9.6
	c5.3,0,9.7,4.3,9.7,9.6C1135.6,561.7,1131.2,566,1125.9,566z"/>
<path class="st2" d="M1161.4,369.4c-10.8,0-19.6,8.8-19.6,19.6c0,2.9,0.7,5.7,1.9,8.2l-70.5,70.6H689.2v0.1l-0.1-0.1L449.5,707.3
	L314.1,571.9l-4.8,14.3l140.1,140.1l5.4-5.4l0.1,0.1l239.7-239.7h383.9v-0.1l0.1,0.1l74.5-74.5c2.5,1.2,5.3,1.9,8.2,1.9
	c10.8,0,19.6-8.8,19.6-19.6C1181.1,378.2,1172.3,369.4,1161.4,369.4z M1161.4,402.5c-7.5,0-13.5-6.1-13.5-13.5
	c0-7.5,6.1-13.5,13.5-13.5c7.5,0,13.5,6,13.5,13.5C1175,396.5,1168.9,402.5,1161.4,402.5z"/>
<path class="st2" d="M1091.4,357.8c-10.8,0-19.6,8.8-19.6,19.6c0,8.5,5.4,15.7,12.9,18.4V425l-20.6,20.6H679.8v0.2l-0.2-0.2
	L449.4,675.8L322,548.4l-4.8,14.3l122.7,122.7l0,0l9.5,9.6l0,0l0,0l9.5-9.6l0,0l226.2-226.2h384.3v0l0,0l28.6-28.6l0,0h0v-34.7
	c7.5-2.8,12.9-10,12.9-18.4C1111,366.6,1102.2,357.8,1091.4,357.8z M1091.4,387.1c-5.3,0-9.7-4.3-9.7-9.6c0-5.3,4.3-9.7,9.7-9.7
	c5.3,0,9.6,4.3,9.6,9.7C1101,382.7,1096.7,387.1,1091.4,387.1z"/>
<polygon class="st0" points="449.3,75.8 326.2,75.8 32.5,954.5 136.7,954.5 380.2,207.6 395.3,207.6 636.3,954.5 745.5,954.5 "/>
</svg>
